<?xml version="1.0" encoding="utf-8"?>
<!-- Generator: Adobe Illustrator 23.0.1, SVG Export Plug-In . SVG Version: 6.00 Build 0)  -->
<svg version="1.1" id="Слой_1" xmlns="http://www.w3.org/2000/svg" xmlns:xlink="http://www.w3.org/1999/xlink" x="0px" y="0px"
	 width="730px" height="520px" viewBox="0 0 730 520" style="enable-background:new 0 0 730 520;" xml:space="preserve">
<style type="text/css">
	.st0{fill:#F7F7F7;}
</style>
<path class="st0" d="M475.57251,0c52.12665,0,113.48016,6.08891,170.70056,41.17241
	c30.93231,18.96552,58.42773,61.49425,66.50116,86.98187C728.30981,177.19955,732.39905,223.76472,728.75928,260
	c-3.65826,36.41925-22.21924,108.71872-39.52466,140.94254c-14.23889,26.51382-48.36365,78.66672-73.32104,95.40228
	C600.24493,506.85172,584.98126,520,544.31097,520c-47.5441,0-92.26257-27.5899-123.15646-36.29886
	c-29.55783-8.33231-70.45694-20.68964-120.86517-21.83908c-24.17551-0.55124-56.70924,0-95.66106,14.36783
	c-20.23474,7.46381-59.87874,26.68491-81.34055,28.73563c-24.05847,2.29886-58.99665-14.6037-71.6026-29.31033
	C27.67817,447.64761,5.57823,420.54074,0.3833,337.14941C-4.4513,259.54218,36.51907,180.4528,119.27798,117.03448
	C264.77444,5.54023,427.54138,0,475.57251,0z"/>
</svg>
